<svg xmlns="http://www.w3.org/2000/svg" xmlns:svg="http://www.w3.org/2000/svg" xmlns:xlink="http://www.w3.org/1999/xlink" version="1.0" height="790pt" width="840pt" viewBox="1095 157.00000000000003 848 796" ><defs><style type="text/css">
            @font-face {
                font-family: 'noto_regular';
                src: url('https://app.creately.com/d/assets/fonts/noto/noto-regular.woff') format('woff'),
                     url('https://app.creately.com/d/assets/fonts/noto/noto-regular.woff2') format('woff2');
                font-weight: normal;
                font-style: normal;
            }
        p {
            margin: 0;
        }
        </style></defs><defs>
        <style>
            span{ display: inline-block; }
            
        </style>
        
        </defs><g id="FIfqTgSQSFt"><g transform="translate(1260 160.00000000000003)"><path d="M 10,0 L 150,0 L 150,0 L 150,0 A 10 10 0 0 1 160 10 L 160,90 L 160,90 L 160,90 A 10 10 0 0 1 150 100 L 10,100 L 10,100 L 10,100 A 10 10 0 0 1 0 90 L 0,10 L 0,10 L 0,10.000000000000002 A 10 10 0 0 1 10 0 Z" fill="rgb(105,158,197)" stroke="#436686" stroke-width="2" stroke-linecap="round" stroke-linejoin="round" stroke-dasharray="0 0"/></g><g transform="translate(1301.82, 201) rotate(0, 38.18, 9)" width="76.36" height="18"><text text-decoration="none" x="0.004218749999999716" fill="#ffffff" font-size="10pt" font-family="noto_regular"  y="14">Dosage&#160;</text><text text-decoration="none" x="50.85578125" fill="#ffffff" font-size="10pt" font-family="noto_regular"  y="14">&#x3C;&#160;</text><text text-decoration="none" x="61.66828125" fill="#ffffff" font-size="10pt" font-family="noto_regular"  y="14">14</text><text text-decoration="none" x="76.35578125" fill="#4b4b4b" font-size="10pt" font-family="noto_regular"  y="14"></text></g></g><g id="VK9odjGStf0"><g transform="translate(1100 370.0000000000002)"><path d="M 10,0 L 150,0 L 150,0 L 150,0 A 10 10 0 0 1 160 10 L 160,90 L 160,90 L 160,90 A 10 10 0 0 1 150 100 L 10,100 L 10,100 L 10,100 A 10 10 0 0 1 0 90 L 0,10 L 0,10 L 0,10.000000000000002 A 10 10 0 0 1 10 0 Z" fill="rgb(114,174,121)" stroke="#49714e" stroke-width="2" stroke-linecap="round" stroke-linejoin="round" stroke-dasharray="0 0"/></g><g transform="translate(1137.04, 411.0000000000002) rotate(0, 42.96, 9)" width="85.92" height="18"><text text-decoration="none" x="0.0029687500000008527" fill="#ffffff" font-size="10pt" font-family="noto_regular"  y="14">4.5%&#160;</text><text text-decoration="none" x="32.76859375" fill="#ffffff" font-size="10pt" font-family="noto_regular"  y="14">effective</text><text text-decoration="none" x="85.91703125000001" fill="#4b4b4b" font-size="10pt" font-family="noto_regular"  y="14"></text></g></g><g id="viijFo6MGc6"><mask id="0aeb8" x="1166" y="246" width="188" height="138" maskUnits="userSpaceOnUse"><rect x="1166" y="246" width="188" height="138" fill="white" /><rect x="1242.66" y="303" width="34.68" height="24" fill="black" />undefined</mask><g mask="url(#0aeb8)"><path d="M 1340,260 L 1180,370" fill="none" stroke="#1a1a1a" stroke-width="2" stroke-linecap="round" stroke-linejoin="round" stroke-dasharray="0 0"/><path d="M 1180,370 L 1190.4231226811603,369.81190347382403 L 1183.9080412179592,360.3354213455313 Z" fill="rgb(26,26,26)" stroke="#1a1a1a" stroke-width="2" stroke-linecap="round" stroke-linejoin="round"/></g><g transform="translate(1245.66, 306)" width="28.68" height="18"><text text-decoration="none" x="0.0001562499999998579" fill="#1a1a1a" font-size="10pt" font-family="noto_regular"  y="14">True</text><text text-decoration="none" x="28.67984375" fill="#4b4b4b" font-size="10pt" font-family="noto_regular"  y="14"></text></g>undefined</g><g id="TgIenQVj76A"><g transform="translate(1440 370)"><path d="M 10,0 L 150,0 L 150,0 L 150,0 A 10 10 0 0 1 160 10 L 160,90 L 160,90 L 160,90 A 10 10 0 0 1 150 100 L 10,100 L 10,100 L 10,100 A 10 10 0 0 1 0 90 L 0,10 L 0,10 L 0,10.000000000000002 A 10 10 0 0 1 10 0 Z" fill="rgb(105,158,197)" stroke="#436686" stroke-width="2" stroke-linecap="round" stroke-linejoin="round" stroke-dasharray="0 0"/></g><g transform="translate(1476.415, 411) rotate(0, 43.585, 9)" width="87.17" height="18"><text text-decoration="none" x="0.0029687500000008527" fill="#ffffff" font-size="10pt" font-family="noto_regular"  y="14">Dosage&#160;</text><text text-decoration="none" x="50.85453125" fill="#ffffff" font-size="10pt" font-family="noto_regular"  y="14">&#x3E;&#160;</text><text text-decoration="none" x="61.66703125" fill="#ffffff" font-size="10pt" font-family="noto_regular"  y="14">=&#160;</text><text text-decoration="none" x="72.47953125000001" fill="#ffffff" font-size="10pt" font-family="noto_regular"  y="14">29</text><text text-decoration="none" x="87.16703125000001" fill="#4b4b4b" font-size="10pt" font-family="noto_regular"  y="14"></text></g></g><g id="aVmNrURbjH0"><mask id="e2d72" x="1326" y="246" width="208" height="138" maskUnits="userSpaceOnUse"><rect x="1326" y="246" width="208" height="138" fill="white" /><rect x="1411.125" y="303" width="37.75" height="24" fill="black" /></mask><g mask="url(#e2d72)"><path d="M 1340,260 L 1520,370" fill="none" stroke="#1a1a1a" stroke-width="2" stroke-linecap="round" stroke-linejoin="round" stroke-dasharray="0 0"/><path d="M 1520,370 L 1515.5784955226043,360.5592815482058 L 1509.5818204138834,370.37202263520334 Z" fill="rgb(26,26,26)" stroke="#1a1a1a" stroke-width="2" stroke-linecap="round" stroke-linejoin="round"/></g><g transform="translate(1414.125, 306)" width="31.75" height="18"><text text-decoration="none" x="0.00390625" fill="#1a1a1a" font-size="10pt" font-family="noto_regular"  y="14">False</text><text text-decoration="none" x="31.74609375" fill="#4b4b4b" font-size="10pt" font-family="noto_regular"  y="14"></text></g></g><g id="wM7AjZQfRbQ"><g transform="translate(1290 600)"><path d="M 10,0 L 150,0 L 150,0 L 150,0 A 10 10 0 0 1 160 10 L 160,90 L 160,90 L 160,90 A 10 10 0 0 1 150 100 L 10,100 L 10,100 L 10,100 A 10 10 0 0 1 0 90 L 0,10 L 0,10 L 0,10.000000000000002 A 10 10 0 0 1 10 0 Z" fill="rgb(114,174,121)" stroke="#49714e" stroke-width="2" stroke-linecap="round" stroke-linejoin="round" stroke-dasharray="0 0"/></g><g transform="translate(1327.04, 641) rotate(0, 42.96, 9)" width="85.92" height="18"><text text-decoration="none" x="0.0029687500000008527" fill="#ffffff" font-size="10pt" font-family="noto_regular"  y="14">2.5%&#160;</text><text text-decoration="none" x="32.76859375" fill="#ffffff" font-size="10pt" font-family="noto_regular"  y="14">effective</text><text text-decoration="none" x="85.91703125000001" fill="#4b4b4b" font-size="10pt" font-family="noto_regular"  y="14"></text></g></g><g id="ht4BUFBLGai"><mask id="0021c" x="1356" y="456" width="178" height="158" maskUnits="userSpaceOnUse"><rect x="1356" y="456" width="178" height="158" fill="white" /><rect x="1427.66" y="523" width="34.68" height="24" fill="black" /></mask><g mask="url(#0021c)"><path d="M 1520,470 L 1370,600" fill="none" stroke="#1a1a1a" stroke-width="2" stroke-linecap="round" stroke-linejoin="round" stroke-dasharray="0 0"/><path d="M 1370,600 L 1380.3370600114663,598.6501640658863 L 1372.805358819661,589.9597396138034 Z" fill="rgb(26,26,26)" stroke="#1a1a1a" stroke-width="2" stroke-linecap="round" stroke-linejoin="round"/></g><g transform="translate(1430.66, 526)" width="28.68" height="18"><text text-decoration="none" x="0.0001562499999998579" fill="#4b4b4b" font-size="10pt" font-family="noto_regular"  y="14">True</text><text text-decoration="none" x="28.67984375" fill="#4b4b4b" font-size="10pt" font-family="noto_regular"  y="14"></text></g></g><g id="7damgEhExBf"><g transform="translate(1610 600)"><path d="M 10,0 L 150,0 L 150,0 L 150,0 A 10 10 0 0 1 160 10 L 160,90 L 160,90 L 160,90 A 10 10 0 0 1 150 100 L 10,100 L 10,100 L 10,100 A 10 10 0 0 1 0 90 L 0,10 L 0,10 L 0,10.000000000000002 A 10 10 0 0 1 10 0 Z" fill="rgb(105,158,197)" stroke="#436686" stroke-width="2" stroke-linecap="round" stroke-linejoin="round" stroke-dasharray="0 0"/></g><g transform="translate(1646.415, 641) rotate(0, 43.585, 9)" width="87.17" height="18"><text text-decoration="none" x="0.0029687500000008527" fill="#ffffff" font-size="10pt" font-family="noto_regular"  y="14">Dosage&#160;</text><text text-decoration="none" x="50.85453125" fill="#ffffff" font-size="10pt" font-family="noto_regular"  y="14">&#x3E;&#160;</text><text text-decoration="none" x="61.66703125" fill="#ffffff" font-size="10pt" font-family="noto_regular"  y="14">=&#160;</text><text text-decoration="none" x="72.47953125000001" fill="#ffffff" font-size="10pt" font-family="noto_regular"  y="14">24</text><text text-decoration="none" x="87.16703125000001" fill="#4b4b4b" font-size="10pt" font-family="noto_regular"  y="14"></text></g></g><g id="P2sobNzbuSQ"><mask id="5351f" x="1506" y="456" width="198" height="158" maskUnits="userSpaceOnUse"><rect x="1506" y="456" width="198" height="158" fill="white" /><rect x="1586.125" y="523" width="37.75" height="24" fill="black" /></mask><g mask="url(#5351f)"><path d="M 1520,470 L 1690,600" fill="none" stroke="#1a1a1a" stroke-width="2" stroke-linecap="round" stroke-linejoin="round" stroke-dasharray="0 0"/><path d="M 1690,600 L 1686.585378701339,590.1502676119394 L 1679.599702464275,599.2853826911771 Z" fill="rgb(26,26,26)" stroke="#1a1a1a" stroke-width="2" stroke-linecap="round" stroke-linejoin="round"/></g><g transform="translate(1589.125, 526)" width="31.75" height="18"><text text-decoration="none" x="0.00390625" fill="#4b4b4b" font-size="10pt" font-family="noto_regular"  y="14">False</text><text text-decoration="none" x="31.74609375" fill="#4b4b4b" font-size="10pt" font-family="noto_regular"  y="14"></text></g></g><g id="o3KxGUktTd3"><g transform="translate(1470 850)"><path d="M 10,0 L 150,0 L 150,0 L 150,0 A 10 10 0 0 1 160 10 L 160,90 L 160,90 L 160,90 A 10 10 0 0 1 150 100 L 10,100 L 10,100 L 10,100 A 10 10 0 0 1 0 90 L 0,10 L 0,10 L 0,10.000000000000002 A 10 10 0 0 1 10 0 Z" fill="rgb(114,174,121)" stroke="#49714e" stroke-width="2" stroke-linecap="round" stroke-linejoin="round" stroke-dasharray="0 0"/></g><g transform="translate(1508.83, 891) rotate(0, 41.17, 9)" width="82.34" height="18"><text text-decoration="none" x="0.0020312500000017053" fill="#ffffff" font-size="10pt" font-family="noto_regular"  y="14">53%&#160;</text><text text-decoration="none" x="29.18953125" fill="#ffffff" font-size="10pt" font-family="noto_regular"  y="14">effective</text><text text-decoration="none" x="82.33796875" fill="#4b4b4b" font-size="10pt" font-family="noto_regular"  y="14"></text></g></g><g id="pROWycOdgNo"><mask id="811f6" x="1536" y="686" width="168" height="178" maskUnits="userSpaceOnUse"><rect x="1536" y="686" width="168" height="178" fill="white" /><rect x="1621.6511212633563" y="742.6523700749755" width="34.68" height="24" fill="black" /></mask><g mask="url(#811f6)"><path d="M 1690,700 L 1550,850" fill="none" stroke="#1a1a1a" stroke-width="2" stroke-linecap="round" stroke-linejoin="round" stroke-dasharray="0 0"/><path d="M 1550,850 L 1560.1367699694401,847.5663276070234 L 1551.7296343846472,839.7196677278832 Z" fill="rgb(26,26,26)" stroke="#1a1a1a" stroke-width="2" stroke-linecap="round" stroke-linejoin="round"/></g><g transform="translate(1624.6511212633563, 745.6523700749755)" width="28.68" height="18"><text text-decoration="none" x="0.0001562499999998579" fill="#4b4b4b" font-size="10pt" font-family="noto_regular"  y="14">True</text><text text-decoration="none" x="28.67984375" fill="#4b4b4b" font-size="10pt" font-family="noto_regular"  y="14"></text></g></g><g id="UallOaF4Dyz"><g transform="translate(1780 850)"><path d="M 10,0 L 150,0 L 150,0 L 150,0 A 10 10 0 0 1 160 10 L 160,90 L 160,90 L 160,90 A 10 10 0 0 1 150 100 L 10,100 L 10,100 L 10,100 A 10 10 0 0 1 0 90 L 0,10 L 0,10 L 0,10.000000000000002 A 10 10 0 0 1 10 0 Z" fill="rgb(114,174,121)" stroke="#49714e" stroke-width="2" stroke-linecap="round" stroke-linejoin="round" stroke-dasharray="0 0"/></g><g transform="translate(1815.16, 891) rotate(0, 44.84, 9)" width="89.68" height="18"><text text-decoration="none" x="0.0001562500000034106" fill="#ffffff" font-size="10pt" font-family="noto_regular"  y="14">100%&#160;</text><text text-decoration="none" x="36.53140625" fill="#ffffff" font-size="10pt" font-family="noto_regular"  y="14">effective</text><text text-decoration="none" x="89.67984375" fill="#4b4b4b" font-size="10pt" font-family="noto_regular"  y="14"></text></g></g><g id="LbFmAqXWmFY"><mask id="5b7ef" x="1676" y="686" width="198" height="178" maskUnits="userSpaceOnUse"><rect x="1676" y="686" width="198" height="178" fill="white" /><rect x="1749.555347189962" y="757.2032475205547" width="37.75" height="24" fill="black" />undefined</mask><g mask="url(#5b7ef)"><path d="M 1690,700 L 1860,850" fill="none" stroke="#1a1a1a" stroke-width="2" stroke-linecap="round" stroke-linejoin="round" stroke-dasharray="0 0"/><path d="M 1860,850 L 1857.2839952361617,839.9352007048086 L 1849.6753464096628,848.5583360415071 Z" fill="rgb(26,26,26)" stroke="#1a1a1a" stroke-width="2" stroke-linecap="round" stroke-linejoin="round"/></g><g transform="translate(1752.555347189962, 760.2032475205547)" width="31.75" height="18"><text text-decoration="none" x="0.00390625" fill="#4b4b4b" font-size="10pt" font-family="noto_regular"  y="14">False</text><text text-decoration="none" x="31.74609375" fill="#4b4b4b" font-size="10pt" font-family="noto_regular"  y="14"></text></g>undefined</g></svg>